HIERARCHY
ROOT Hips
{
	OFFSET 0.000000 0.000000 0.000000
	CHANNELS 6 Xposition Yposition Zposition Zrotation Yrotation Xrotation 
	JOINT LHipJoint
	{
		OFFSET 0.000000 0.000000 0.000000
		CHANNELS 3 Zrotation Yrotation Xrotation
		JOINT LeftUpLeg
		{
			OFFSET 1.363060 -1.794630 0.839290
			CHANNELS 3 Zrotation Yrotation Xrotation
			JOINT LeftLeg
			{
				OFFSET 2.448110 -6.726130 0.000000
				CHANNELS 3 Zrotation Yrotation Xrotation
				JOINT LeftFoot
				{
					OFFSET 2.562200 -7.039590 0.000000
					CHANNELS 3 Zrotation Yrotation Xrotation
					JOINT LeftToeBase
					{
						OFFSET 0.157640 -0.433110 2.322550
						CHANNELS 3 Zrotation Yrotation Xrotation
						End Site
						{
							OFFSET 0.000000 0.000000 0.000000
						}
					}
				}
			}
		}
	}
	JOINT RHipJoint
	{
		OFFSET 0.000000 0.000000 0.000000
		CHANNELS 3 Zrotation Yrotation Xrotation
		JOINT RightUpLeg
		{
			OFFSET -1.305520 -1.794630 0.839290
			CHANNELS 3 Zrotation Yrotation Xrotation
			JOINT RightLeg
			{
				OFFSET -2.542530 -6.985550 0.000000
				CHANNELS 3 Zrotation Yrotation Xrotation
				JOINT RightFoot
				{
					OFFSET -2.568260 -7.056230 0.000000
					CHANNELS 3 Zrotation Yrotation Xrotation
					JOINT RightToeBase
					{
						OFFSET -0.164730 -0.452590 2.363150
						CHANNELS 3 Zrotation Yrotation Xrotation
						End Site
						{
							OFFSET 0.000000 0.000000 0.000000
						}
					}
				}
			}
		}
	}
	JOINT LowerBack
	{
		OFFSET 0.000000 0.000000 0.000000
		CHANNELS 3 Zrotation Yrotation Xrotation
		JOINT Spine
		{
			OFFSET 0.028270 2.035590 -0.193380
			CHANNELS 3 Zrotation Yrotation Xrotation
			JOINT Spine1
			{
				OFFSET 0.056720 2.048850 -0.042750
				CHANNELS 3 Zrotation Yrotation Xrotation
				JOINT Neck
				{
					OFFSET 0.000000 0.000000 0.000000
					CHANNELS 3 Zrotation Yrotation Xrotation
					JOINT Neck1
					{
						OFFSET -0.054170 1.746240 0.172020
						CHANNELS 3 Zrotation Yrotation Xrotation
						JOINT Head
						{
							OFFSET 0.104070 1.761360 -0.123970
							CHANNELS 3 Zrotation Yrotation Xrotation
							End Site
							{
								OFFSET 0.000000 0.000000 0.000000
							}
						}
					}
				}
				JOINT LeftShoulder
				{
					OFFSET 0.000000 0.000000 0.000000
					CHANNELS 3 Zrotation Yrotation Xrotation
					JOINT LeftArm
					{
						OFFSET 3.362410 1.200890 -0.311210
						CHANNELS 3 Zrotation Yrotation Xrotation
						JOINT LeftForeArm
						{
							OFFSET 4.983000 -0.000000 -0.000000
							CHANNELS 3 Zrotation Yrotation Xrotation
							JOINT LeftHand
							{
								OFFSET 3.483560 -0.000000 -0.000000
								CHANNELS 3 Zrotation Yrotation Xrotation
								JOINT LeftFingerBase
								{
									OFFSET 0.000000 0.000000 0.000000
									CHANNELS 3 Zrotation Yrotation Xrotation
									JOINT LeftHandIndex1
									{
										OFFSET 0.715260 -0.000000 -0.000000
										CHANNELS 3 Zrotation Yrotation Xrotation
										End Site
										{
											OFFSET 0.000000 0.000000 0.000000
										}
									}
								}
								JOINT LThumb
								{
									OFFSET 0.000000 0.000000 0.000000
									CHANNELS 3 Zrotation Yrotation Xrotation
									End Site
									{
										OFFSET 0.000000 0.000000 0.000000
									}
								}
							}
						}
					}
				}
				JOINT RightShoulder
				{
					OFFSET 0.000000 0.000000 0.000000
					CHANNELS 3 Zrotation Yrotation Xrotation
					JOINT RightArm
					{
						OFFSET -3.136600 1.374050 -0.404650
						CHANNELS 3 Zrotation Yrotation Xrotation
						JOINT RightForeArm
						{
							OFFSET -5.241900 -0.000000 -0.000000
							CHANNELS 3 Zrotation Yrotation Xrotation
							JOINT RightHand
							{
								OFFSET -3.444170 -0.000000 -0.000000
								CHANNELS 3 Zrotation Yrotation Xrotation
								JOINT RightFingerBase
								{
									OFFSET 0.000000 0.000000 0.000000
									CHANNELS 3 Zrotation Yrotation Xrotation
									JOINT RightHandIndex1
									{
										OFFSET -0.622530 -0.000000 -0.000000
										CHANNELS 3 Zrotation Yrotation Xrotation
										End Site
										{
											OFFSET 0.000000 0.000000 0.000000
										}
									}
								}
								JOINT RThumb
								{
									OFFSET 0.000000 0.000000 0.000000
									CHANNELS 3 Zrotation Yrotation Xrotation
									End Site
									{
										OFFSET 0.000000 0.000000 0.000000
									}
								}
							}
						}
					}
				}
			}
		}
	}
}
MOTION
Frames: 12
Frame Time: 0.008333
0.368050 17.889185 -8.845880 -3.530890 -2.444107 0.879480 1.495015 1.172698 0.521916 -14.043456 -6.416152 -31.379966 5.716517 15.189981 46.382214 -0.465340 3.943470 4.353654 0.237000 -3.133300 -8.650000 -2.431698 -2.601377 1.097876 31.154517 7.790889 1.780225 -0.587289 -5.415622 18.482241 0.278810 -2.464113 -2.898931 -0.008400 -0.591600 1.625600 4.417026 1.430496 5.729273 1.208317 1.856444 -1.355290 0.914459 1.368946 -2.210791 -7.495894 -2.444135 -11.894267 3.361168 -2.274240 14.726957 2.813300 -1.611100 9.895800 -7.715198 3.029130 -2.195981 -83.851504 2.244954 14.821258 9.824288 -18.576794 -1.772447 -1.984381 -3.285488 12.508914 20.343765 23.303358 10.185000 -7.125000 0.000000 0.000000 -9.655600 58.400700 -3.183800 5.996390 -2.067555 -2.163102 78.779066 1.708643 17.486160 -14.622681 22.271658 -3.967162 0.783733 -0.130321 8.317766 -11.841616 7.199988 -1.608500 7.125000 0.000000 0.000000 10.334700 -22.639900 5.649900
0.371699 17.874789 -8.744976 -3.657733 -2.555300 0.985816 1.436308 1.148843 0.499914 -13.782062 -6.596256 -31.318035 5.284472 14.815630 44.787913 -0.645403 4.717941 4.304869 0.198412 -2.861045 -7.892575 -2.414174 -2.599791 1.106917 31.263275 7.688981 2.093908 -0.572069 -5.362005 18.354511 0.252328 -2.370936 -3.121307 -0.006779 -0.529600 1.455295 4.604438 1.523426 5.709747 1.204878 1.986563 -1.362395 0.819820 1.438688 -2.219210 -7.499464 -2.502602 -11.868195 3.348831 -2.352555 14.623673 2.803183 -1.645343 9.850727 -7.715018 3.031168 -2.203993 -83.899527 2.404444 14.646880 9.830286 -18.576373 -1.723376 -2.045745 -3.488439 12.786154 20.804736 25.518242 11.262672 -7.125000 0.000000 0.000000 -10.568933 60.958913 -4.164191 5.997517 -2.056485 -2.150983 78.711506 1.949321 17.545170 -14.567543 22.195130 -3.937724 0.794473 -0.223056 7.905989 -11.951582 8.113037 -1.853128 7.125000 0.000000 0.000000 10.188585 -21.619624 5.805938
0.374010 17.860272 -8.642887 -3.736772 -2.706629 1.076820 1.374061 1.126722 0.479686 -13.555876 -6.766411 -31.217996 4.852809 14.424466 43.171818 -0.831420 5.493392 4.191984 0.188610 -2.793977 -7.705824 -2.393747 -2.599164 1.116746 31.321880 7.614766 2.442599 -0.553478 -5.299559 18.201194 0.226960 -2.280179 -3.320730 -0.004860 -0.442765 1.216692 4.709262 1.623307 5.689860 1.194748 2.120898 -1.372686 0.751118 1.510220 -2.238640 -7.490940 -2.532643 -11.839231 3.360647 -2.398121 14.558383 2.804087 -1.662444 9.820180 -7.717942 3.037661 -2.210092 -83.909898 2.576272 14.401930 9.807497 -18.541008 -1.700320 -2.089342 -3.510990 13.099438 21.058721 25.889848 11.544846 -7.125000 0.000000 0.000000 -10.495989 61.435757 -4.254201 5.998250 -2.050927 -2.144001 78.660192 2.099054 17.806735 -14.516567 22.118581 -3.904061 0.840305 -0.310507 6.930982 -12.299275 9.081552 -2.164418 7.125000 0.000000 0.000000 9.857870 -20.529477 5.853128
0.374740 17.845611 -8.539396 -3.759256 -2.905443 1.149683 1.307626 1.106654 0.461556 -13.371347 -6.924796 -31.072874 4.421599 14.013411 41.529938 -1.024479 6.270001 4.003263 0.212866 -2.969665 -8.194236 -2.369886 -2.599671 1.127510 31.321147 7.573315 2.832706 -0.530901 -5.226668 18.017607 0.202912 -2.192286 -3.492998 -0.002590 -0.326547 0.897289 4.716376 1.731412 5.669547 1.176700 2.260221 -1.386746 0.713103 1.583868 -2.271098 -7.468110 -2.529054 -11.806847 3.401040 -2.404943 14.538042 2.818031 -1.659267 9.806821 -7.724539 3.049426 -2.213927 -83.875725 2.762696 14.073486 9.750650 -18.464301 -1.708040 -2.111918 -3.320109 13.455366 21.067821 24.080675 10.885869 -7.125000 0.000000 0.000000 -9.256184 59.450136 -3.290801 5.998518 -2.051891 -2.143096 78.628097 2.141189 18.307944 -14.470514 22.042007 -3.865400 0.927653 -0.391705 5.289618 -12.928223 10.115690 -2.554577 7.125000 0.000000 0.000000 9.308755 -19.356665 5.771543
0.375591 17.837574 -8.436755 -3.881119 -3.149877 1.238566 1.238964 1.079871 0.431275 -13.018978 -7.181096 -30.967000 3.989066 13.569172 39.802007 -1.237595 7.130517 4.109765 0.233556 -3.108635 -8.581407 -2.350730 -2.598349 1.134800 31.411304 7.522182 3.229751 -0.506113 -5.147476 17.818119 0.162799 -2.031593 -3.632218 -0.002816 -0.343061 0.942569 4.839673 1.834500 5.627505 1.179771 2.395160 -1.364886 0.653780 1.655964 -2.176319 -7.440720 -2.521141 -11.870340 3.375517 -2.392411 14.455091 2.803752 -1.650741 9.775518 -7.729743 3.047168 -2.193831 -83.904361 2.723814 13.666672 9.621279 -18.240990 -1.678488 -2.048422 -3.222309 13.527159 20.414230 23.021267 10.128443 -7.125000 0.000000 0.000000 -9.415464 58.109753 -3.032173 5.988730 -2.043219 -2.144253 78.565654 2.417703 18.273171 -14.666723 22.317342 -3.977734 0.864155 -0.298951 6.153349 -12.458461 9.165435 -2.214535 7.125000 0.000000 0.000000 9.728805 -20.439990 5.792506
0.376925 17.831484 -8.334987 -3.970544 -3.367677 1.359065 1.167178 1.050715 0.398931 -12.683051 -7.490022 -30.880703 3.558178 13.108096 38.041090 -1.454934 8.007390 4.304233 0.256662 -3.257543 -8.996778 -2.329487 -2.597005 1.143504 31.457417 7.464087 3.595548 -0.478530 -5.061226 17.596012 0.130434 -1.903535 -3.760003 -0.002348 -0.282833 0.777054 4.921770 1.921610 5.561379 1.186033 2.504215 -1.349126 0.626918 1.715766 -2.084489 -7.437299 -2.516466 -11.940880 3.346015 -2.377144 14.378912 2.791259 -1.643401 9.749318 -7.735656 3.043706 -2.176131 -83.963077 2.693121 13.317298 9.495248 -18.015016 -1.630513 -1.968859 -3.237176 13.463272 19.692424 23.025105 9.708377 -7.125000 0.000000 0.000000 -10.313602 57.923379 -3.318860 5.982871 -2.031843 -2.143699 78.473786 2.739780 18.245215 -14.828197 22.539174 -4.069833 0.805841 -0.207881 6.955255 -12.017667 8.224109 -1.888601 7.125000 0.000000 0.000000 10.129322 -21.508346 5.797813
0.379048 17.827636 -8.234547 -3.990503 -3.533949 1.529988 1.090509 1.018615 0.364997 -12.400319 -7.871968 -30.821136 3.130241 12.623938 36.238184 -1.676263 8.898770 4.600618 0.284355 -3.428691 -9.474813 -2.304034 -2.595906 1.155104 31.415957 7.395830 3.908024 -0.446610 -4.964139 17.338507 0.113488 -1.841205 -3.873722 -0.000337 -0.073940 0.203165 4.917174 1.982766 5.458300 1.194397 2.570651 -1.349067 0.657608 1.755245 -2.017068 -7.474663 -2.517865 -12.008525 3.319949 -2.360265 14.323643 2.786070 -1.638862 9.734402 -7.742969 3.040377 -2.166103 -84.062484 2.710623 13.075986 9.385906 -17.807034 -1.557436 -1.875603 -3.426217 13.215976 18.958001 24.692337 9.867593 -7.125000 0.000000 0.000000 -12.233203 59.568195 -4.409632 5.985122 -2.017421 -2.139965 78.337350 3.102172 18.310723 -14.894487 22.617647 -4.104973 0.779294 -0.146259 7.270216 -11.793540 7.601541 -1.698062 7.125000 0.000000 0.000000 10.348787 -22.206235 5.761236
0.382275 17.822795 -8.130574 -3.951711 -3.636278 1.717795 1.008394 0.992528 0.337878 -12.156159 -8.352139 -30.665811 2.719291 12.115128 34.431910 -1.902954 9.767569 4.743167 0.294721 -3.490972 -9.648808 -2.270789 -2.598619 1.171796 31.312336 7.313266 4.261518 -0.404095 -4.835058 16.987313 0.136450 -1.940568 -3.928437 -0.003832 0.274802 -0.755079 4.886690 2.020798 5.339956 1.184269 2.605939 -1.378568 0.651143 1.779174 -2.027149 -7.518329 -2.502975 -12.045911 3.312134 -2.324274 14.302293 2.794808 -1.626279 9.732602 -7.753051 3.042171 -2.168857 -84.120743 2.852385 12.745382 9.296994 -17.636598 -1.479087 -1.793358 -3.656408 13.187179 18.239496 26.897706 10.118728 -7.125000 0.000000 0.000000 -14.875905 61.722534 -6.217946 5.982053 -2.006743 -2.139615 78.244949 3.349816 18.511471 -14.908977 22.631642 -4.112405 0.776044 -0.169227 7.266072 -11.789418 7.813517 -1.748844 7.125000 0.000000 0.000000 10.339344 -21.969926 5.812961
0.385899 17.816887 -8.025773 -3.951665 -3.736608 1.891637 0.925907 0.969444 0.311782 -11.865248 -8.830818 -30.482419 2.321685 11.598059 32.632244 -2.133040 10.634208 4.862151 0.318899 -3.623477 -10.020359 -2.238012 -2.602263 1.189212 31.251273 7.221052 4.644982 -0.358175 -4.694048 16.603798 0.163674 -2.050884 -3.940926 -0.008324 0.582085 -1.599493 4.906975 2.065170 5.257497 1.173525 2.656074 -1.412014 0.614543 1.809928 -2.064609 -7.529683 -2.492073 -12.097704 3.291554 -2.300376 14.289402 2.790460 -1.618139 9.740374 -7.761225 3.041667 -2.174656 -84.154710 3.009713 12.440262 9.213236 -17.471791 -1.391659 -1.710699 -3.923047 13.278488 17.436539 29.556429 10.373552 -7.125000 0.000000 0.000000 -18.479319 64.241114 -8.912138 5.979229 -1.996983 -2.140830 78.175624 3.556280 18.701882 -14.920265 22.643313 -4.118133 0.777909 -0.216574 7.223356 -11.844564 8.261675 -1.867846 7.125000 0.000000 0.000000 10.269586 -21.469263 5.890957
0.389945 17.808860 -7.920689 -4.075277 -3.863551 2.023020 0.845190 0.950737 0.284828 -11.441054 -9.257456 -30.277595 1.948331 11.072948 30.850388 -2.368781 11.506692 4.999326 0.385374 -3.981274 -11.024616 -2.210217 -2.606303 1.205891 31.324863 7.112296 5.081495 -0.309153 -4.539637 16.187434 0.181656 -2.108311 -3.879267 -0.012539 0.719120 -1.976292 5.064117 2.136433 5.270277 1.170389 2.757847 -1.440536 0.522582 1.865025 -2.130816 -7.458947 -2.498947 -12.199621 3.230778 -2.315457 14.280479 2.747268 -1.624819 9.765083 -7.763374 3.033025 -2.181602 -84.149572 3.143869 12.241428 9.132014 -17.302247 -1.284639 -1.621603 -4.258504 13.555743 16.419299 33.058220 10.592108 -7.125000 0.000000 0.000000 -24.074884 67.399028 -13.418293 5.979624 -1.987621 -2.144204 78.141013 3.718614 18.800393 -14.949246 22.681066 -4.133345 0.780800 -0.281838 7.243572 -11.936197 8.876000 -2.034714 7.125000 0.000000 0.000000 10.165172 -20.782659 5.989664
0.394588 17.799492 -7.814414 -4.258142 -4.034813 2.098584 0.765444 0.937087 0.256298 -10.951683 -9.681033 -30.014572 1.607892 10.552473 29.129867 -2.616759 12.395111 5.084701 0.464711 -4.361785 -12.098425 -2.187151 -2.612934 1.218017 31.448745 6.937847 5.610640 -0.257116 -4.369540 15.733372 0.182537 -2.091298 -3.816493 -0.014085 0.766705 -2.107113 5.270507 2.226500 5.294169 1.176709 2.886482 -1.436309 0.437337 1.932842 -2.103812 -7.388415 -2.504782 -12.388123 3.192321 -2.326833 14.315474 2.713054 -1.627665 9.825563 -7.762683 3.028919 -2.179993 -84.140753 3.220152 12.131172 9.068363 -17.201496 -1.297244 -1.648827 -4.072404 13.683222 16.617152 31.148188 10.236829 -7.125000 0.000000 0.000000 -21.518609 65.563069 -11.174995 5.986258 -1.984244 -2.148403 78.083770 3.886743 18.880738 -14.992953 22.736791 -4.158906 0.758560 -0.247493 7.208780 -11.708653 8.579939 -1.924007 7.125000 0.000000 0.000000 10.362455 -21.120251 6.027022
0.399486 17.790714 -7.706328 -4.435309 -4.204302 2.165310 0.687429 0.925089 0.226679 -10.463235 -10.126725 -29.741963 1.287470 10.038994 27.457396 -2.866099 13.271929 5.128676 0.534809 -4.685626 -13.014061 -2.164524 -2.621369 1.228707 31.551876 6.701236 6.160998 -0.201879 -4.185782 15.243424 0.174532 -2.035217 -3.750606 -0.015229 0.796145 -2.188065 5.471876 2.315147 5.278240 1.183396 3.008577 -1.420404 0.362473 1.997681 -2.024798 -7.345830 -2.506982 -12.579480 3.183904 -2.328995 14.359045 2.699574 -1.625579 9.888335 -7.759470 3.030920 -2.179028 -84.133635 3.306301 12.105631 9.035863 -17.167929 -1.345800 -1.695795 -3.786134 13.769636 17.050850 28.192648 9.771460 -7.125000 0.000000 0.000000 -17.380017 62.763584 -7.619191 5.991094 -1.984082 -2.150549 78.024667 4.057866 18.958680 -15.037695 22.793897 -4.184478 0.738270 -0.191371 7.140170 -11.480194 8.083412 -1.763533 7.125000 0.000000 0.000000 10.571115 -21.681269 6.018810
